<?xml version="1.0" standalone="no"?>
<!DOCTYPE svg PUBLIC "-//W3C//DTD SVG 20010904//EN"
 "http://www.w3.org/TR/2001/REC-SVG-20010904/DTD/svg10.dtd">
<svg version="1.0" xmlns="http://www.w3.org/2000/svg"
 width="681.000000pt" height="344.000000pt" viewBox="0 0 681.000000 344.000000"
 preserveAspectRatio="xMidYMid meet">

<g transform="translate(0.000000,344.000000) scale(0.100000,-0.100000)"
fill="#000000" stroke="none">
<path d="M156 3239 c-4 -85 -22 -606 -41 -1159 -19 -553 -42 -1182 -51 -1398
-9 -216 -13 -396 -9 -400 5 -5 1236 -53 1242 -48 4 3 23 487 33 831 16 537 69
2041 76 2162 5 90 3 114 -8 117 -7 3 -233 12 -503 20 -269 9 -545 19 -611 22
l-122 7 -6 -154z m144 42 c0 -32 -12 -40 -47 -33 -16 3 -23 11 -23 26 0 30 8
36 42 36 24 0 28 -4 28 -29z m815 -21 c-15 -6 -16 -9 -4 -9 9 -1 16 -8 16 -16
0 -18 -14 -19 -31 -2 -18 17 -8 37 17 36 21 0 21 -1 2 -9z m193 -33 c-10 -12
-15 -12 -26 -1 -11 11 -11 16 0 27 10 12 15 12 26 1 11 -11 11 -16 0 -27z
m-844 -194 c9 -23 -1 -31 -31 -25 -33 6 -46 22 -32 38 12 15 56 6 63 -13z
m139 5 c29 0 37 -4 37 -19 0 -16 -6 -18 -57 -12 -32 3 -68 6 -80 7 -15 1 -23
7 -23 20 0 16 5 18 43 11 23 -4 59 -7 80 -7z m-304 -12 c14 -17 -5 -66 -26
-66 -17 0 -38 44 -30 64 8 20 41 21 56 2z m1001 -82 c0 -8 -5 -12 -10 -9 -6 4
-8 11 -5 16 9 14 15 11 15 -7z m-1100 -2549 c0 -14 -4 -25 -10 -25 -5 0 -10
11 -10 25 0 14 5 25 10 25 6 0 10 -11 10 -25z m40 0 c0 -14 -4 -25 -10 -25 -5
0 -10 11 -10 25 0 14 5 25 10 25 6 0 10 -11 10 -25z m298 13 c17 -17 15 -58
-4 -65 -26 -10 -47 19 -35 50 12 30 21 33 39 15z m318 -16 c29 -19 2 -58 -31
-46 -18 7 -20 40 -2 47 17 8 21 8 33 -1z m300 -29 c-10 -10 -19 5 -10 18 6 11
8 11 12 0 2 -7 1 -15 -2 -18z m19 -23 c4 -6 -7 -10 -25 -10 -18 0 -29 4 -25
10 3 6 15 10 25 10 10 0 22 -4 25 -10z m-665 -30 c8 -5 11 -10 5 -10 -5 0 -17
5 -25 10 -8 5 -10 10 -5 10 6 0 17 -5 25 -10z m320 2 c0 -15 -11 -21 -27 -15
-12 5 -12 7 -1 14 17 11 28 11 28 1z m57 -18 c-3 -3 -12 -4 -19 -1 -8 3 -5 6
6 6 11 1 17 -2 13 -5z"/>
<path d="M261 3274 c0 -11 3 -14 6 -6 3 7 2 16 -1 19 -3 4 -6 -2 -5 -13z"/>
<path d="M830 370 c0 -5 5 -10 10 -10 6 0 10 5 10 10 0 6 -4 10 -10 10 -5 0
-10 -4 -10 -10z"/>
<path d="M6690 2789 c-9 -15 -7 -21 5 -25 18 -7 28 0 31 21 3 22 -25 26 -36 4z"/>
<path d="M6682 2374 c4 -21 22 -23 26 -1 2 10 -3 17 -13 17 -10 0 -15 -6 -13
-16z"/>
</g>
</svg>
